<svg width="502" height="506" viewBox="0 0 502 506" fill="none" xmlns="http://www.w3.org/2000/svg">
<g clip-path="url(#clip0_122_87)">
<path d="M501.5 255.5C501 311.5 483.1 363.2 447.6 408.7C415.1 450.3 373.3 478.6 323.1 494.7C296.7 503.1 269.6 506.7 241.9 505.5C190.2 503.2 143.2 486.8 101.7 455.7C56.4 421.6 26 377.2 10 322.9C1.60001 294.6 -1.29999 265.7 0.60001 236.3C2.90001 200 12.1 165.5 29.7 133.5C65.9 67.4 120.7 24.8 194.1 6.6C216.5 1 239.4 -0.900001 262.5 0.3C292.5 1.9 321.3 8.2 348.8 20.2C384.6 35.8 415.2 58.3 440.6 88C466.4 118 484 152.3 493.6 190.7C498.9 211.4 501.3 232.4 501.5 255.5ZM471.7 227.2C471.3 216.6 469 206.4 466.3 196.2C466.3 195.8 466.3 195.4 466.2 195C462.1 179.9 457.1 165.1 449.6 151.3C446.8 146 444.7 140.3 440.5 135.8C439.9 133.1 438.1 131 436.6 128.8C433.6 124.4 430.9 119.7 427 115.9C424.5 111.6 421.4 107.8 418.1 104.1C412.2 97.4 406.2 90.8 399.5 84.9C391.9 77.8 383.6 71.4 375 65.6C363.8 58.1 352.2 51.3 339.7 46.2C334 43.8 328.3 41.1 322.2 39.7C321.7 39.1 320.9 38.9 320.2 38.6C314.6 36.4 308.7 35.1 302.8 33.6C295.7 31.8 288.4 30.3 281.1 29.2C268.8 28.1 256.5 26.3 244 27.3C235.9 27.9 227.7 28 219.6 29.1C208.9 30.5 198.3 32.6 188 35.6C163.5 42.9 140.6 53.9 120 69.1C117.5 70.9 114.5 72.3 113.1 75.4C111.9 75.2 111.1 76 110.3 76.7C108.2 78.6 106.2 80.6 104 82.3C97.9 87.3 92.6 93.2 87.1 98.8C85.1 100.9 82.7 102.9 81.4 105.7C80.5 106.6 79.4 107.3 78.6 108.3C69.4 119.8 61.2 132 54.2 144.9C44.4 163 37.6 182.2 32.9 202.2C29.1 218.4 27.5 234.9 27 251.6C26.8 257.8 27.7 264 28 270.2C28.6 282.5 30.9 294.5 33.8 306.4C41 335.5 53.9 362 71.8 386C81 398.4 91.1 409.9 102.6 420.2C112 428.7 122 436.3 132.7 443.2C153.2 456.2 175.2 465.4 198.7 471.4C212.7 474.9 226.9 476.9 241.2 477.7C254.5 478.4 267.9 478 281.1 475.9C295.8 473.5 310.2 470.1 324.2 465C338.7 459.7 352.6 453.2 365.8 445.1C375.2 439.3 384.1 432.9 392.5 425.8C399.2 420.1 406 414.3 411.8 407.5C417.2 402.3 422 396.5 426.4 390.5C432 382.9 437.4 375.2 442.2 367C451.7 350.8 459.1 333.7 464.5 315.8C469.3 299.6 472.3 282.9 473.2 266C473.8 254.8 473.7 243.6 472.6 232.4C472.6 230.8 472.7 228.9 471.7 227.2Z" fill="#0E1B23"/>
<path d="M411.9 407.7C406.1 414.5 399.4 420.2 392.6 426C384.2 433.1 375.3 439.5 365.9 445.3C352.7 453.4 338.8 459.8 324.3 465.2C310.3 470.4 295.8 473.7 281.2 476.1C268 478.3 254.6 478.6 241.3 477.9C227 477.1 212.7 475.2 198.8 471.6C175.3 465.7 153.2 456.5 132.8 443.4C122.1 436.6 112.1 428.9 102.7 420.4C91.2 410 81.1 398.5 71.9 386.2C54 362.1 41.2 335.7 33.9 306.6C31 294.7 28.7 282.7 28.1 270.4C27.8 264.2 26.9 258 27.1 251.8C27.6 235.2 29.2 218.7 33 202.4C37.7 182.4 44.5 163.2 54.3 145.1C61.3 132.1 69.5 120 78.7 108.5C79.5 107.5 80.5 106.8 81.5 105.9C81.4 107.8 80.8 109.5 79.3 110.8C78.6 111.4 77.4 112.1 78.4 113.2C79.2 114.1 80.2 113.3 81 112.7C81.4 112.4 81.8 112.2 82.2 111.9C84.4 110.3 85.3 110.5 86 113.1C86.4 114.4 86.9 115.6 88 116.2C91.2 117.7 90.4 120.1 89.7 122.6C88.9 125.6 88.5 128.7 88.2 131.8C88 134.2 89.5 136.4 88.4 138.7C87.8 140 88 141.2 88.7 142.5C89.8 144.7 90.6 147.1 88 149C85.7 150.7 86.1 152.3 87.8 154.3C90.1 157.1 91.3 160.1 90.5 164.2C89.5 169.5 86.9 174.1 85.3 179.2C84.1 182.9 84.5 186.8 83.4 190.5C82.9 192.3 82.1 195 83.3 196.6C85 198.8 85.3 201 85.6 203.6C85.9 206.2 84.5 209.3 87.1 211.5C88.4 212.6 89.5 213.9 90.9 214.9C93.4 216.7 95 218.9 94.9 222.2C94.8 226 96 229.2 98.7 231.9C100.2 233.4 101.3 235.3 102.9 237.7C100.6 237 99 237.2 98.6 239.2C98.3 240.9 99.4 241.9 100.8 242.5C102 243 102.3 244.1 103 245.1C105 248.1 106.6 251.5 109.8 254C109.6 249.7 107.5 246.3 106.8 242.4C106.5 241.1 106.8 239.4 105.7 238.1C102.9 234.4 101.5 230.2 102.1 225.5C102.2 224.9 101.6 224.1 102.6 223.9C103.6 223.7 103.5 224.7 103.8 225.3C105.1 227.9 105.2 230.9 106.4 233.6C108.2 237.4 112.1 239.7 113.2 243.8C114.1 247 116.6 249.2 118.5 251.6C121.2 255 123.8 258.3 123.4 262.8C122.9 267.6 125.6 269.8 129.4 271.6C131.3 272.5 133.2 273.6 135.1 274.4C140.7 276.9 145.2 282.9 152.5 280.2C152.7 280.1 153 280.1 153.1 280.2C155.5 282.5 155.4 277.4 157.4 278.7C157.5 277.4 157.9 276 157.2 275C155.4 272.2 155 268.2 151.1 267C150.8 266.9 150.6 266.2 150.4 265.8C147.1 260.8 145.8 255.7 148.5 250C149.1 248.8 149.2 247.1 149.1 245.5C148.8 242.6 149.1 239.7 151.8 238.1C155 236.1 158.2 234.3 161.8 233C165.3 231.7 168.1 232.4 171.1 233.8C171.2 234.7 170.7 235.5 170.3 236.3C163.7 248 160 260.5 158.6 273.8C156.5 293.1 160.4 311.1 170.1 327.9C177 339.9 186.8 349.1 198 356.9C196.6 357.6 196.2 358.4 197.2 359.9C198.3 361.6 199.4 363.4 200.4 365.2C204.4 371.8 210 376.9 217.1 380.3C220.5 381.9 223.8 383.7 224.5 388.1C225 391.6 227.5 395 224.8 398.6C224.2 399.3 224 400.4 223.9 401.4C223.5 406.6 223.7 411.9 221.6 416.9C221.5 417.2 221.7 417.6 221.8 418C222.4 422.8 223.4 427.5 219.5 431.7C217.8 433.6 217.1 436.8 218.2 439.2C219.4 442 218 443.6 216.7 445.5C216.4 445.9 215.6 446.1 216.2 447C217.5 446.8 218.7 446.5 220.1 446.3C220.4 448.1 217.9 449.2 218.9 450.7C220.8 453.5 219.6 454.2 216.9 454.3C216.5 454.3 216 454.4 216.1 454.9C216.1 455.2 216.4 455.6 216.7 455.8C217.4 456.6 219.1 456.2 219.3 457.8C217.5 458 216 458.9 217.8 460.4C221 463.2 224.2 466.1 227.6 468.7C229.1 469.8 231.5 471.8 234.1 469.9C234.8 469.4 235.6 470.2 236.3 470.1L236.4 470.3L236.5 470.2L236.3 470.1C236.9 469.1 238.8 469.9 238.9 468.6C239 467.2 237.3 468 236.7 467.3C235.4 466 233.7 464.6 233.7 463C233.7 461 235.3 459.3 237.7 458.9C238 458.9 238.3 458.8 238.5 458.7C239 458.4 239.6 458.1 239.4 457.4C239.3 456.9 238.7 456.7 238.3 456.6C237.6 456.4 237 456.3 236.3 456.1C235.6 455.9 234.3 456.6 234.3 455.2C234.3 454.1 235.3 453.6 236.3 453.3C236.9 453.1 237.7 453.2 238.3 453C239.4 452.7 240.1 452.2 238.9 451C238.4 450.5 237.3 449.8 237.9 448.8C238.4 448.1 239.3 448.6 240.1 448.9C241.1 449.2 241.8 448.7 242.3 448C242.7 447.5 242.8 446.9 242.3 446.4C239.4 444.2 242.3 444.4 243.3 444.2C244.6 444 246 444.3 247.3 444.4C248.2 444.4 249.1 444.4 249.2 443.1C249.3 439.5 251.1 438.1 254.7 439.1C255.1 439.2 255.6 438.8 256.1 438.7C259.2 438.1 260.8 435.8 262.7 433.5C263.8 432.2 263.9 431.6 262.9 430.4C262.3 429.8 261.5 429.4 261.4 428.3C261.9 427.9 262.5 427.9 263.1 428.2C268.9 430.5 273 428.9 276.5 423.7C278.7 420.4 281 416.6 285.5 416.4C288.6 416.3 289.1 414.6 289.9 412.2C290.7 409.8 290.3 406.7 293.1 405.3C298.4 402.7 303.4 398.7 309.9 399.8C310.5 399.9 311.1 399.8 311.3 399.1C313.6 393.5 320 390.8 321.7 384.6C322.2 382.7 323.4 381 323.7 378.9C324.1 376.2 324.9 373.5 326.9 371.6C331.1 367.9 334.8 363.7 338.7 359.8C342.3 356.2 341.7 350.5 337.3 348C335.3 346.9 333.3 345.8 331.8 343.9C331 342.9 329.7 342.6 328.3 343.1C326.7 343.6 325.1 343.8 323.5 344.4C322 344.9 320.9 344.5 319.9 343.3C320.2 342.8 320.6 342.3 320.9 341.9C334.4 327.2 341.5 310 342.1 290.1C342.6 274.4 338.4 260.1 330.2 246.8C325.6 239.3 320.8 232 316.8 224.2C312.3 215.3 310.3 205.9 311.7 195.9C312 193.6 312.5 191.3 312.9 188.8C312.4 188.9 312.2 188.9 312.1 189C296.4 199.9 289.2 219.8 294 238.2C295.2 242.7 296.9 247.1 296.6 251.9C296.4 255.5 294.7 258 291.4 259.4C288.1 260.8 285.1 260.2 282.5 257.8C279.8 255.3 278.6 252 277.8 248.6C275.7 240.1 276.5 231.7 278.7 223.4C280.5 216.4 282.5 209.5 283.1 202.3C284 190.8 282.1 179.8 278.2 169.1C279.9 169.1 279.6 167.1 280.9 166.5C284 165 286.8 165.2 289.5 167.4C291.3 168.9 294.6 168.2 295.5 166.1C296.2 164.2 296 162.4 293.4 161.7C292.5 161.5 291.1 160.4 291.6 159.4C293.4 155.9 291 156.3 288.9 156C288 155.9 286 156.3 286.6 154C286.9 153 287.8 151.9 286.7 151.1C285.6 150.4 284.5 151.3 283.5 151.9C282.7 152.5 281.6 152.7 280.9 153.7C279.5 156.2 277 156.7 274.4 156.4C273.5 156.3 273.2 156.6 273 157.4C272.4 156.4 271.8 155.4 271.2 154.4C274.8 153.1 278.4 151.9 281.6 149.6C282.6 148.9 283.9 147.6 285.5 148.9C285.9 149.2 286.7 148.8 286.8 148.1C286.9 147.2 286.1 147.3 285.6 147.3C284.5 147.2 283.4 147.3 282.4 147.1C281.6 147 280.9 146.4 280.9 145.5C280.9 144.6 281.7 144.6 282.3 144.3C283.6 143.8 284.9 144.3 286.3 144.1C284.2 140 283 139.2 280 139.8C278.9 140 277.3 140.9 277 139.6C276.6 138.2 278.6 138.6 279.4 138.2C280.5 137.7 280.7 136.8 280.7 135.8C280.7 134.3 279.4 135.1 278.7 134.9C277.3 134.6 276 134.9 274.5 134.2C271 132.6 269.6 129.2 268.1 126.3C266.3 122.8 264.2 119.9 261.5 117.2C258.4 114.2 258.3 114.2 255.2 117.2C253.5 118.8 251.5 120.2 248.7 119C246.2 117.9 246.6 116 246.8 114.1C247.1 111.3 244.8 107.7 242 107.7C240.3 107.7 240.1 107 239.6 105.9C238.8 104 233.9 101.2 232.3 101.9C230.1 102.9 227.9 102.8 225.6 102.9C223.8 103 223.1 104.8 222.8 106.2C222.6 107.5 221.7 109.2 223.7 110.3C225.6 111.4 225.5 113.4 223.5 114.3C220.6 115.8 220.2 117 221.9 119.7C223 121.5 223.9 123.4 224.8 125.3C225.8 127.3 225.8 129.2 224.5 130.4C223 131.9 221.6 134.2 218.7 133.2C217.2 132.7 216.9 133.4 217.3 134.9C218.5 139 217.8 143.3 218 147.5C218 148.7 217.4 149.6 216.3 149.9C215.2 150.3 214.4 149.8 213.6 148.9C212.3 147.6 212 145.6 210.5 144.6C208.4 143.2 206.5 139 207.6 136.7C208.6 134.4 207.6 133.5 205.7 133.2C202.7 132.6 200.1 131.2 197.4 129.7C194.4 128 191.3 126.4 187.8 126.1C186.5 126 185.4 127 184.2 125.1C183.4 123.7 182.8 122.6 183.2 121.2C183.9 119.1 183.8 118.1 181.2 118.4C180.3 118.5 179.6 118 179.7 116.8C180 113.2 181.6 110.4 184.2 107.7C187.4 104.5 191.5 102.6 194.7 99.5C195.9 98.4 196.8 96.8 199 96.8C199.8 96.8 201.1 95.5 201.5 94.5C202.5 92 204.7 91.8 207 91.2C205.8 92.7 205.3 93.8 207.3 94.9C207.9 95.2 207.7 96.4 206.7 96.7C205.8 97 205.5 97.9 204.9 98.6C203.9 99.7 205.2 100 205.7 100.5C206.7 99.4 208.4 100.6 209.4 99C210.5 97.4 212 96.6 213.8 98.9C215.1 100.6 216.9 99.5 218.1 98.3C219.5 96.8 218 96.1 217 95.4C214.2 93.5 212.2 90.3 208.5 89.6C208 89.5 206.8 89 207.3 88C207.7 87.2 208.6 86.3 209.4 86.9C211.8 88.6 213.7 88.5 215.5 86.2C215.8 85.8 216.6 85.8 217.1 85.6C220.3 84.9 221.4 83.3 221 80.2C220.9 79.2 221 78.3 222 77.7C223.9 76.3 223 75.7 221.3 75C219.4 74.3 217.5 74.4 215.6 74.3C215 74.2 214.3 74.3 214.4 73.5C214.4 72.9 215 72.8 215.5 72.9C216.4 73.1 217.3 73 218.1 72.9C221.1 72.6 224.1 74.4 227.1 72.8C228.2 72.2 229.4 72.7 230.3 74C231.9 76.4 233.6 78.6 236.6 79.8C238.3 80.4 239.9 83.1 239.2 84.8C238.3 87.2 236 89 234.4 91.2C233.9 91.8 233.5 91.9 232.9 91.6C231 90.7 229.2 90.6 227.6 92.4C227.1 93 225.5 92.3 225.8 93.7C226 94.7 227.2 94.7 228 94.8C228.8 95 229.8 94.6 230.6 94.8C232.4 95.3 234.3 93.8 236 94.9C238.3 96.5 240.9 97.7 242.6 100.1C243.8 101.8 249.5 103 251 101.7C252.8 100.1 254.1 100.4 255.9 101.5C257.8 102.7 259.1 101.8 259.1 99.6C259 96.8 257.7 94.8 255.1 93.8C253.3 93.1 253 91.4 252.2 90C252.1 89.8 252.2 89.2 252.4 88.9C252.8 88.4 253.3 88.8 253.7 89C255.6 90.1 257.6 92.2 259.4 91.6C261.3 91 262.6 88.7 264.2 87.1C264.6 86.7 265.2 86.4 265.1 86.2C262.1 83.2 258.8 81.2 255.3 79.6C254 79 252.7 78.3 251.5 77.5C250.4 76.8 249.9 76 251.1 74.7C253.2 72.4 252.8 71.6 249.7 70.9C248 70.6 246.6 69.8 246.3 68.2C245.8 65.4 244.1 65.3 241.9 65.3C240.2 65.3 237.6 65.1 237.8 63.1C238.1 60.5 236.7 60 235.2 59.9C233.1 59.9 232.6 57 230.8 57.6C228.4 58.4 225.8 58.5 223.6 60C222.3 60.9 221.9 62.6 220.5 63C214.9 64.8 214.1 70.1 211.8 74.3C211.5 74.8 211.8 75.3 212.2 75.6C214.6 77.3 212.4 78.1 211.6 79.2C210.6 80.7 208.8 81.9 207.5 80.9C206.4 79.9 205.5 80 204.3 80C204.3 78.7 205.6 76.8 203.7 76.6C200.3 76.1 200.8 74 201.2 71.7C201.5 70 202.5 67.7 201.7 66.7C200.6 65.1 200.3 63.9 201.9 63.4C203.1 63 203.6 60.5 205.5 62.2C206.1 62.7 206.9 62 207.5 61.4C207.5 61.3 207.6 61.2 207.6 61.2C207.6 61.3 207.5 61.4 207.5 61.4C203.2 58.3 202.5 58.5 198.3 62.5C197.1 63.7 196.8 65.7 195.7 66.4C191.9 68.7 191.7 72.3 191.6 76C188.4 74.2 186 75 183.5 77.7C182.4 78.8 180.8 79.6 179.5 80.8C178.7 81.6 177 82.8 176.2 82.2C173.7 80.4 170.3 81 168 78.8C167.5 78.3 166.3 78.5 166.7 77.2C167.1 76.2 167.6 75.5 168.8 75.4C170.4 75.2 171.6 75.9 172.1 77.3C172.8 79.6 173.9 78.9 175.3 78.1C177.9 76.7 180.1 74.5 183 73.6C183.8 73.4 185 73.3 184.8 72.2C184.5 71.1 183.5 71.6 182.6 71.6C178.6 71.8 176.8 68.8 178.5 65.2C179.4 63.3 180.2 61.4 181 59.4C181.2 58.8 181.4 58 180.7 57.5C180.1 57.1 179.7 57.8 179.2 58.2C177 60.1 174.5 61.6 173.6 64.6C173.2 66.1 172.5 66 171.6 65C170 63.2 167.9 63 165.7 63C164.7 63 163.4 63.5 162.5 62.4C163.7 60.6 165.8 61.9 167.1 60.7C167.7 60.2 168.9 60 168.3 58.7C167.7 57.4 166.9 57.7 165.9 58.2C164 59.1 162.1 60.6 160.4 57.8C160.3 57.7 160 57.7 159.8 57.7C157.3 58.1 154.8 58.4 152.4 59C151 59.4 149.7 61.2 150.2 62C152.2 65 149.1 64.4 148.4 64.5C146.3 64.7 145.3 65.8 144.4 67.4C144 68 143.1 68.6 144 69.4C144.8 70.1 145.7 70.8 146.9 70.2C147.5 69.9 148 69.4 148.6 69C151.1 67.5 153.7 66 156.8 65.4C156.7 66.7 155.9 66.8 155.2 67.1C154.2 67.5 153 67.8 152.7 68.9C152.4 70.4 154.1 69.8 154.7 70.5C155 70.8 155.6 71.1 155.5 71.6C155.4 72.4 154.7 72.3 154.1 72.3C151.1 72.2 148.7 72.8 148.2 76.3C148 78 146.5 77.5 145.4 77.5C144 77.5 144.5 76.8 144.9 76C145.2 75.5 144.6 75.2 144.2 75C142.7 74.3 141.3 73.5 140 72.3C139.3 71.6 138.6 72 138.4 72.7C137.6 75.1 136.2 74.3 135 73.3C133.8 72.3 133.1 72.6 132 73.5C130.2 75 129.2 78.6 125.7 76.1C125.4 75.9 124.5 76.3 124.1 76.6C122.9 77.5 121.2 77.7 120.2 79C119 80.3 117.7 80 117.3 78.5C116.7 76.1 115 75.6 113.1 75.3C114.5 72.2 117.5 70.8 120 69C140.7 53.8 163.5 42.8 188 35.5C198.3 32.4 208.9 30.4 219.6 29C227.7 27.9 235.9 27.8 244 27.2C256.5 26.3 268.8 28 281.1 29.1C279.2 30.2 277.1 29.6 275.1 29.5C270.9 29.3 266.6 27.8 262.6 31C261.3 32 259.1 32.5 256.8 30.8C254.5 29.2 251.7 27.3 248.2 27.8C245.6 28.1 242.9 27.8 240.3 27.9C236.1 28 232.4 29.5 228.9 31.6C232.3 30.9 235.6 31.5 239 31.6C234.4 31.9 230.3 35.1 225.5 33.4C224.1 32.9 223.1 34 222.8 35C222.4 36.2 223.7 36.4 224.6 36.8C225.7 37.3 226.8 37.3 228 36.9C229 36.6 230.2 36.2 231.1 37.3C229.9 38.3 228.2 37.1 227.5 38.4C226.4 40.2 224.6 40.1 222.9 40.2C221.3 40.2 219.7 40.7 218.1 41C213 41.9 208.6 45.3 203.2 44.9C202.5 44.8 201.8 44.9 201.6 45.8C201.1 47.5 200.1 48.3 198.3 48.6C197.3 48.7 197.4 49.7 197.5 50.5C197.7 51.6 198.5 51.1 199.1 50.9C201.5 50.3 204.1 50.1 205.5 47.6C205.8 47.1 206.5 46.7 207.1 46.3C207.6 46 208.3 45.9 208.7 46.4C209.1 46.9 208.6 47.3 208.4 47.7C207.5 49.2 206.7 50.8 205.6 52.1C204.9 52.9 204 53.1 204.9 54.5C205.8 55.8 206.9 56.5 208 55.9C210.7 54.5 214 54.5 216.4 55.2C220.8 56.5 224.6 54.5 228.7 54.3C231.1 54.2 231.4 51.9 232.1 50.1C232.3 49.7 232.6 49 232.1 48.8C230.6 48.2 229 48.5 227.6 49.3C227.4 49.4 227.3 49.5 227.1 49.6C224.9 50.8 222.7 51.7 220.2 51C219.2 50.7 218.2 51 217.4 51.6C215.8 52.8 213.6 52.5 212 53.6C211.2 54.1 210.3 53.5 209.6 53C209.1 52.6 209.1 51.8 209.6 51.4C211.2 50 212.2 47.9 214.5 47.5C214.7 48.4 213.1 49.6 214.7 50.3C215.8 50.8 217 50.2 218 49.5C218.5 49.1 218.8 48.5 218.5 48C217.7 46.3 216.5 47.8 215.4 47.6C215.1 47.5 214.8 47.6 214.5 47.6C214.6 46.7 213.7 46.6 213.3 46C215.4 45.6 217.3 44.2 219.5 44.7C221 45 224 42.9 223.5 46.9C223.4 47.4 224.2 47.2 224.7 47.2C229.1 47.3 233.3 46.5 237.5 45.3C241.2 44.3 242.3 43.2 242.8 39.8C242.8 39.6 242.9 39.3 243 39.3C244.9 39.1 245.7 36.4 247.9 37C249.7 37.6 251.2 37.3 252.8 36.1C253.5 35.5 254.7 35.3 256.4 35.6C254.1 36.9 252.5 38.3 251.2 39.9C249.6 41.9 250.7 45.9 253 46.5C255.6 47.2 258.3 47.7 261.1 47.3C264 46.8 266.1 47.8 268.5 49.6C271.3 51.7 273 54.5 275 57.1C276.5 59.1 279.1 61.3 277.1 64.5C276.8 65.1 277 65.9 277.6 66.3C278.3 66.8 278.6 66 279 65.7C280 64.8 281.2 63.8 282.6 64.8C284.3 66.1 286.2 67.3 286.9 69.6C285.4 69.4 283.9 70.9 282.4 69.6C281.9 69.1 281 68.8 280.7 69.6C280.2 70.9 279.5 72.7 280 73.5C281.7 76 286.8 75.5 288.1 72.9C289.1 76 288.9 76.4 286.3 77.9C284.5 79 282.8 80.7 283.5 82.9C285.1 88.2 287.8 92.9 291.2 97.3C293.7 100.5 297.2 102.7 299 106.5C299.7 108.1 301.3 108.3 303 108.3C305.2 108.3 307.7 108 309.4 110.1C310.2 111.1 311 112 312.3 111.5C313.7 111 313.6 109.6 313.9 108.4C314.4 106.2 313.1 103.8 314.9 101.7C317.2 99.1 317.3 95.9 316.3 92.7C316 91.8 316.4 91 317.1 90.7C318.7 90 320.4 89 322 89.2C324.8 89.5 326.1 88.4 327.1 86C328.5 82.6 330.5 79.6 335 80.4C339.7 81.2 342 78 344.5 75.1C345.2 74.3 345.2 73.5 344.8 72.3C343.8 68.8 340.7 66.8 339.1 63.7C338.7 63 338.2 62.8 338.6 61.6C339.5 58.9 338 56.8 335.2 55.9C334.2 55.6 334.3 54.5 333.8 53.8C333.3 53 334.3 52.9 334.7 52.8C336.4 52.3 336.1 51.6 335.1 50.6C334 49.5 332.8 48.7 331.3 48.7C329.7 48.7 328.8 47.9 327.9 46.9C327.4 46.3 326.9 45.5 326.2 45.4C323.3 44.7 322.7 42.2 322 39.9C328.1 41.3 333.7 44.1 339.5 46.4C352 51.5 363.6 58.3 374.8 65.8C383.5 71.6 391.7 77.9 399.3 85.1C398 86.4 397.4 87.8 399 89.3C399.6 89.9 400.8 90.3 400.5 91.2C400.1 92.4 398.7 91.5 397.6 92.1C398.8 93.1 399.2 95.3 401.3 93.6C401.9 93.1 402.7 93.7 403.1 94.1C405.4 96.5 407.8 99.3 408.6 102C409.4 104.8 411.4 106.6 412.3 109.2C412.9 110.9 412.8 111.1 411.5 111.8C410.7 112.2 409.1 112.8 410.6 114.1C413.2 116.5 414.7 119.8 416.9 122.5C417.8 123.6 419 125.9 420.2 125.1C421.8 124 419.5 122.6 419 121.3C418.7 120.4 417.6 119.4 418.4 118.7C419.4 117.9 420 119.2 420.7 119.9C423.8 122.9 425.9 126.6 427.9 130.3C429 132.3 429.9 132 431.3 130.7C432.3 129.8 431.9 129.1 431.4 128.1C430.2 125.5 427.9 124 425.8 122.3C423.7 120.6 422.6 118.5 422.2 115.8C423.4 115.7 423.7 116.5 424.2 117C424.7 117.6 424.7 119 425.9 118.6C427 118.2 426.6 116.9 426.7 116C430.6 119.8 433.3 124.5 436.3 128.9C437.8 131.1 439.6 133.2 440.2 135.9C436.1 137 436.1 137 436.8 142C434.9 142.2 435 140.8 434.7 139.6C434.5 138.8 433.8 137.9 432.9 138C432.1 138 431.3 138.8 431.6 139.6C432.4 142.3 430.5 141.6 429.2 141.8C428.2 141.9 427.4 141.1 426.4 141.6C427.3 143.9 424.7 145.2 424.8 147.4C424.8 148.6 425.4 150.4 424.6 151.2C422.2 153.7 421.4 157.7 417.2 158.5C414.9 158.9 415 160.3 416.8 161.4C419.1 162.7 420.4 164.8 421.5 167.1C421.9 167.9 421 168.8 421.6 169.1C424.7 170.8 424.4 174.2 425.5 176.9C426.1 178.3 425.5 178.7 424.3 178.6C420.2 178.5 416.2 178.4 412.1 178.1C409.3 177.9 408.3 179 409.4 181.6C409.7 182.2 410.3 182.7 410.4 183.3C411.1 185.9 413.6 188.4 411.5 191.1C409.5 193.8 410.7 195.8 411.9 198C412.3 198.7 413 199.2 413.2 200.2C413.4 201.6 414.3 202.2 415.7 202C418.4 201.7 419.1 203.4 419.5 205.6C420.4 210.2 418.4 213.9 415.8 217.3C413.2 220.7 411.7 224.4 412.6 228.7C413 230.5 412.3 231.7 411.3 232.6C407.3 236.2 405.1 241.1 401.8 245.1C399.6 247.7 399.2 251.4 396.8 254C393.4 257.5 394 261.5 395.3 265.8C396.9 271 396.1 276 392.3 280.2C391.1 281.5 391.3 288.4 392.7 289.2C395.6 290.7 396.1 294 398.4 295.8C399.4 296.6 399.9 297.6 400.1 298.7C401.2 304.1 403.3 309 406.9 313.2C410.3 317.3 412.9 318.5 416.8 314.3C417.8 313.2 418.6 312.9 419.8 313.7C421.6 314.9 423.6 314.5 425 313.4C428.6 310.7 432.9 309.3 436.8 307.2C438.5 306.3 439.4 306.9 439.5 308.8C439.5 310.4 439.6 311.9 440 313.4C440.4 315.1 441.3 315.1 442.5 314.4C443.2 314 443.7 312.8 444.7 313.5C445.6 314.2 445.5 315.3 445.1 316.2C444.6 317.3 445 318.4 444.7 319.5C443.4 323.8 441.6 327.8 439.5 331.7C439.2 332.2 438.6 332.9 439.5 333.5C441.9 335.2 441.3 337.6 440.9 339.8C440.5 342.4 439.7 344.9 439.3 347.5C438.6 351.6 438.1 356 435.5 359.4C432.3 363.7 429.9 368.5 427.6 373.2C425.7 377.1 424 381.2 422.3 385.3C420 390.7 416 395.3 413 400.4C412.2 402.7 410.5 404.9 411.9 407.7ZM341.2 115.2C341.1 115.4 341.1 115.7 341.1 116C341.3 115.9 341.4 115.9 341.6 115.8C342.8 117 344.2 118 345.8 118.7C345.8 118.9 345.7 119.2 345.7 119.2C345.9 119.3 346.2 119.4 346.5 119.4C358.4 119.4 370.3 119.5 382.1 119.4C384.7 119.4 385.6 119.9 385.6 122.7C385.4 134.3 385.5 145.9 385.5 157.4C385.5 158.1 385.1 159 385.9 159.7C386.3 158.5 385.7 157.2 386.5 156.2C386.2 160.7 387.3 164.5 392.2 166.1C392.1 166.2 392.1 166.2 392 166.3C392 166.4 392 166.5 392 166.5C393.6 166.7 395.2 167.4 396.6 165.9L396.5 166C397.2 166.2 398 166.4 398.3 165.4L398.2 165.5C399.3 165.7 399.9 165.2 400.1 164.2C400.9 163 401.8 161.8 402.1 160.3C403.7 159.7 403 158.3 403 157.3C403.1 146.6 403 135.9 403 125.2C403 120.4 403 115.5 403 110.7C402.9 110.7 402.7 110.7 402.6 110.7C402.5 111.3 402.4 112 402.2 112.6C402 108.8 400.1 106.1 397.1 104.1C396.7 102.5 395.6 103.1 394.6 103.2L394.5 103.3C394.2 101.8 393 102.3 392.1 102.3C377.4 102.3 362.8 102.3 348.1 102.3C347.2 102.3 346.1 101.8 345.7 103.2V103.1C345.3 103.2 344.5 102.1 344.5 103.5C342.9 104.6 341.4 105.9 340.5 107.6C339.5 107.9 339.7 108.6 339.7 109.3V109.2C338.5 110.9 338.8 112.5 340.3 113.8V113.7C340.5 114.6 340.6 115.1 341.2 115.2ZM100.9 343.3C100 343.3 99.6 343.7 100 344.6C98.8 344.7 99.2 345.6 99.2 346.3L99.3 346.2C98.3 346.8 98.6 347.7 98.6 348.6C98.6 364.5 98.6 380.4 98.6 396.3C98.6 396.7 98 397.7 99.2 397.7C100.2 399.8 101.4 401.7 103.3 403.1C103.3 403.3 103.2 403.4 103.2 403.6C103.5 403.6 103.8 403.6 104 403.5L103.9 403.4C105 405.6 107.1 405.3 108.9 405.3C123.1 405.4 137.3 405.4 151.4 405.3C152.2 405.3 153 405.4 153.6 404.8C155.5 404.7 157.5 405.4 159.2 404C161.6 402.1 163.2 396 162.1 392.7C161.1 389.7 157.4 387.2 153.7 387.2C143.5 387.2 133.2 387.2 123 387.2C115.6 387.2 115.5 387.2 115.6 379.7C115.8 368.8 115.1 357.9 116 347C116.1 345.6 115.2 345.4 114.3 345.1H114.4C114.5 344.2 114.5 343.3 113.2 343.3C112.8 343 112.5 342.6 112.1 342.3C112 341.6 111.5 341.5 110.9 341.6H111C109.1 339.7 105.4 339.7 103.5 341.6L103.6 341.5C102.7 341.4 101.8 341.3 101.8 342.7L101.9 342.6C101.3 342.9 101.1 343.1 100.9 343.3ZM399 402.3C400.2 402.4 400.8 401.7 400.8 400.5C401.5 399 402.2 397.5 402.2 395.8C402.2 379.9 402.1 364 402.1 348.1C402.1 346.4 401.6 344.9 400.4 343.6C398.1 341.1 394.7 340.2 391.3 341.5C388.5 342.5 386.7 345.1 386.6 348.5C386.6 361.1 386.5 373.6 386.6 386.2C386.6 388.5 386 388.9 383.9 388.9C372.1 388.8 360.3 388.9 348.5 388.8C345.4 388.8 343 389.6 341.1 391.9C338.4 394.3 338.5 398.3 341.2 400.5C341.2 402.4 342.2 403.3 344.1 403.5C345 405.6 347.1 405.3 348.6 405.4C363.3 405.5 378 405.6 392.6 405.4C394.6 405.4 397.2 405.5 398.3 403L398.2 403.1C398.5 402.7 398.7 402.5 399 402.3ZM185.2 48C183.1 47.6 182.6 50.3 180.8 50.4C180.1 50.4 179.4 51.3 178.6 50.6C177.6 49.7 179.4 49.2 179 48.3C178.1 47.8 176.9 49.3 176.1 47.9C178.1 47 180.3 46.5 182.2 46C184.4 45.4 186.2 44.1 188.2 43.5C188.8 43.3 189.7 43 189.5 42.2C189.3 41.2 188.4 41.7 187.8 41.7C186.2 41.7 184.8 42.8 183.3 43C178.8 43.7 175.2 46.4 170.8 47.4C168.2 48 169.4 52.1 166.6 53C167.4 54.3 168.8 55.3 169 57C169.1 57.6 170.1 56.8 170.5 57C173.9 58.2 176.9 56.9 179.6 55.4C180.7 54.8 184.9 56.5 182.7 52.3C182.7 52.2 183.2 52 183.3 51.7C184.1 50.4 184.6 49.2 185.2 48C185.4 47.8 186 48.3 185.8 47.6C185.6 47.7 185.4 47.8 185.2 48ZM352.8 89.8C351.5 90.6 349.9 88.8 348.8 90.3C348.2 91.1 351.4 100.4 352.4 100.8C354.7 101.8 357.2 102.4 359.4 101.7C362.7 100.7 365.8 99.2 368.7 97.3C369.2 97 369.7 96.5 369.5 95.9C368.9 93.5 368.5 91 365.4 90.2C363.7 89.8 362 89.3 360.4 88.7C359.4 88.4 358.2 88 357.6 88.7C356.3 90.7 354.4 89.4 352.8 89.8ZM409.6 145.4C409.8 146.2 410.1 148 410.9 149.5C411.6 150.8 419.2 151.4 420.4 150.6C421.3 150 421.9 144.5 421.2 143.6C418.3 139.6 413.5 137.3 411.4 132.5C410.1 129.5 407.4 127.1 406.8 123.7C406.7 123 406.3 122.9 405.8 123C405.1 123 404 122.8 403.8 123.8C403.6 125.1 403 127.2 404 127.6C406.6 128.6 406 131.2 407.1 132.8C407.6 133.5 407.6 134.7 408.2 135.1C411.1 136.9 411 140.3 412.7 142.7C412.9 142.9 412.7 143.5 412.5 143.7C412.2 144 411.8 143.8 411.5 143.5C410 141.8 409.5 142.5 409.6 145.4ZM208.3 72.3C210.4 70.4 212.9 69.2 213.2 67.5C213.8 64.3 216.4 63.6 218.2 61.9C218.8 61.4 220.1 61.2 219.5 60.1C219 59.2 217.9 58.8 216.9 59.2C214.7 60 212.6 60.9 210.6 62C208.4 63.2 206.9 66.7 207.9 68.4C208.6 69.6 208.3 70.6 208.3 72.3ZM346.5 387.8C346.5 388 346.4 388.2 346.4 388.3C359.1 388.3 371.7 388.3 384.4 388.3C386.2 388.3 386.1 387.1 386.1 385.9C386.1 379.3 386.1 372.6 386.1 366C386.1 359.8 386.1 353.6 386.1 346.8C385.3 348.4 385.6 349.4 385.6 350.5C385.6 361.8 385.5 373.1 385.7 384.5C385.7 387.3 384.9 387.9 382.2 387.9C370.3 387.7 358.4 387.8 346.5 387.8ZM214.4 130.8C214.8 131.9 213.8 133.3 215.3 133.9C215.5 134 216.3 132.4 216.8 131.6C217 131.3 217.2 130.9 217.4 130.6C218.5 129.4 217.7 128.4 216.7 128.1C213.5 126.8 214.9 129.6 214.4 130.8ZM88.3 118.1C88.1 118 88 117.9 87.8 117.9C87.7 117.9 87.7 118.2 87.6 118.3C87.8 118.4 87.9 118.5 88.1 118.5C88.2 118.5 88.2 118.3 88.3 118.1Z" fill="#183449"/>
<path d="M191.6 76.1C191.7 72.4 191.9 68.8 195.7 66.5C196.8 65.8 197 63.8 198.3 62.6C202.4 58.6 203.2 58.4 207.5 61.5C207 62.1 206.1 62.8 205.5 62.3C203.6 60.6 203 63.1 201.9 63.5C200.3 64 200.6 65.2 201.7 66.8C202.4 67.9 201.4 70.1 201.2 71.8C200.9 74 200.3 76.1 203.7 76.7C205.6 77 204.3 78.8 204.3 80.1C205.4 80.1 206.4 80.1 207.5 81C208.8 82.1 210.6 80.8 211.6 79.3C212.4 78.2 214.6 77.3 212.2 75.7C211.8 75.4 211.5 74.9 211.8 74.4C214.1 70.2 214.9 64.9 220.5 63.1C221.9 62.7 222.3 61 223.6 60.1C225.8 58.5 228.4 58.5 230.8 57.7C232.7 57.1 233.2 59.9 235.2 60C236.7 60 238.1 60.6 237.8 63.2C237.6 65.1 240.3 65.4 241.9 65.4C244.1 65.4 245.8 65.5 246.3 68.3C246.6 69.9 248 70.7 249.7 71C252.8 71.7 253.2 72.5 251.1 74.8C249.9 76.1 250.5 76.9 251.5 77.6C252.7 78.4 254 79.1 255.3 79.7C258.8 81.3 262.1 83.2 265.1 86.3C265.1 86.5 264.5 86.8 264.2 87.2C262.6 88.8 261.3 91.1 259.4 91.7C257.5 92.3 255.5 90.2 253.7 89.1C253.3 88.9 252.8 88.5 252.4 89C252.2 89.3 252.1 89.8 252.2 90.1C253 91.4 253.3 93.2 255.1 93.9C257.7 94.9 259.1 96.9 259.1 99.7C259.1 101.9 257.8 102.8 255.9 101.6C254.1 100.4 252.8 100.1 251 101.8C249.5 103.2 243.8 102 242.6 100.2C240.9 97.8 238.3 96.6 236 95C234.3 93.8 232.4 95.3 230.6 94.9C229.8 94.7 228.8 95.1 228 94.9C227.2 94.7 226 94.7 225.8 93.8C225.5 92.4 227.1 93 227.6 92.5C229.2 90.8 230.9 90.8 232.9 91.7C233.5 92 233.9 92 234.4 91.3C236 89.1 238.2 87.3 239.2 84.9C239.9 83.2 238.3 80.5 236.6 79.9C233.6 78.8 231.9 76.5 230.3 74.1C229.4 72.8 228.2 72.3 227.1 72.9C224 74.5 221.1 72.7 218.1 73C217.3 73.1 216.4 73.2 215.5 73C215 72.9 214.4 73 214.4 73.6C214.4 74.4 215 74.3 215.6 74.4C217.5 74.6 219.5 74.4 221.3 75.1C222.9 75.7 223.9 76.4 222 77.8C221 78.5 220.9 79.3 221 80.3C221.4 83.4 220.3 85 217.1 85.7C216.5 85.8 215.8 85.9 215.5 86.3C213.7 88.6 211.8 88.8 209.4 87C208.6 86.4 207.7 87.3 207.3 88.1C206.8 89.2 208 89.6 208.5 89.7C212.2 90.4 214.2 93.6 217 95.5C218 96.2 219.5 96.9 218.1 98.4C216.9 99.6 215.1 100.7 213.8 99C212 96.7 210.5 97.5 209.4 99.1C208.3 100.7 206.6 99.5 205.7 100.6C205.2 100 203.8 99.8 204.9 98.7C205.5 98.1 205.8 97.2 206.7 96.8C207.7 96.4 207.9 95.3 207.3 95C205.4 94 205.8 92.8 207 91.3C204.6 92 202.5 92.2 201.5 94.6C201.1 95.6 199.9 96.9 199 96.9C196.8 96.9 195.9 98.4 194.7 99.6C191.5 102.7 187.4 104.6 184.2 107.8C181.6 110.5 180 113.3 179.7 116.9C179.6 118.1 180.3 118.6 181.2 118.5C183.8 118.2 183.9 119.3 183.2 121.3C182.8 122.6 183.4 123.8 184.2 125.2C185.4 127.2 186.5 126.1 187.8 126.2C191.3 126.5 194.4 128.1 197.4 129.8C200 131.3 202.7 132.7 205.7 133.3C207.5 133.7 208.6 134.5 207.6 136.8C206.6 139.1 208.4 143.2 210.5 144.7C212 145.7 212.3 147.7 213.6 149C214.5 149.9 215.2 150.4 216.3 150C217.4 149.6 218.1 148.8 218 147.6C217.8 143.4 218.5 139.2 217.3 135C216.9 133.5 217.2 132.8 218.7 133.3C221.6 134.3 223 131.9 224.5 130.5C225.8 129.3 225.8 127.4 224.8 125.4C223.8 123.5 223 121.6 221.9 119.8C220.2 117.1 220.6 115.9 223.5 114.4C225.4 113.4 225.6 111.5 223.7 110.4C221.8 109.3 222.6 107.6 222.8 106.3C223.1 104.9 223.7 103.1 225.6 103C227.9 102.9 230.1 103 232.3 102C233.9 101.3 238.7 104.1 239.6 106C240.1 107.1 240.3 107.8 242 107.8C244.8 107.8 247.1 111.4 246.8 114.2C246.6 116.1 246.3 118 248.7 119.1C251.5 120.3 253.5 118.9 255.2 117.3C258.3 114.3 258.4 114.3 261.5 117.3C264.2 120 266.3 122.9 268.1 126.4C269.6 129.3 271 132.7 274.5 134.3C276 135 277.3 134.7 278.7 135C279.4 135.1 280.6 134.3 280.7 135.9C280.7 136.9 280.5 137.8 279.4 138.3C278.5 138.7 276.6 138.3 277 139.7C277.4 141 278.9 140.1 280 139.9C283 139.3 284.2 140.1 286.3 144.2C285 144.4 283.6 143.9 282.3 144.4C281.7 144.7 280.9 144.7 280.9 145.6C280.9 146.5 281.6 147.1 282.4 147.2C283.4 147.4 284.5 147.3 285.6 147.4C286.1 147.4 286.9 147.3 286.8 148.2C286.7 148.9 285.9 149.3 285.5 149C283.9 147.7 282.6 148.9 281.6 149.7C278.4 152 274.8 153.1 271.2 154.5C262.4 141.2 252 129.4 237.6 120.8C237.9 121.9 238 122.3 238.1 122.6C242.9 137.7 242.7 152.7 236.6 167.4C232.7 176.7 227.3 185.2 221.1 193.1C211.7 205.3 202.1 217.3 197.6 232.4C196.9 231.1 195.5 232.7 194.7 231.7C192.7 229.1 189.9 229.2 187.1 229.5C185.1 229.7 184.1 228.8 183.4 227.1C183 223.9 183.8 220.7 183.8 217.1C179.7 221.6 176.6 226.1 173.6 230.8C172.8 232 172.5 233.5 171.1 234.2C168.1 232.8 165.3 232.1 161.8 233.4C158.2 234.7 155 236.5 151.8 238.5C149.1 240.2 148.8 243.1 149.1 245.9C149.3 247.5 149.1 249.2 148.5 250.4C145.7 256.2 147 261.3 150.4 266.2C150.7 266.6 150.8 267.3 151.1 267.4C155 268.6 155.4 272.6 157.2 275.4C157.9 276.5 157.5 277.9 157.4 279.1C155.4 277.8 155.5 282.9 153.1 280.6C153 280.5 152.7 280.5 152.5 280.6C145.2 283.3 140.7 277.2 135.1 274.8C133.2 274 131.3 272.9 129.4 272C125.7 270.1 123 268 123.4 263.2C123.9 258.7 121.3 255.4 118.5 252C116.6 249.6 114.1 247.5 113.2 244.2C112 240.1 108.1 237.7 106.4 234C105.1 231.3 105.1 228.3 103.8 225.7C103.5 225.1 103.6 224.2 102.6 224.3C101.6 224.5 102.2 225.3 102.1 225.9C101.6 230.6 102.9 234.8 105.7 238.5C106.7 239.8 106.5 241.5 106.8 242.8C107.5 246.6 109.6 250 109.8 254.4C106.7 251.9 105.1 248.5 103 245.5C102.4 244.5 102 243.4 100.8 242.9C99.3 242.3 98.3 241.2 98.6 239.6C99 237.6 100.5 237.5 102.9 238.1C101.2 235.8 100.2 233.8 98.7 232.3C96 229.6 94.8 226.3 94.9 222.6C95 219.4 93.4 217.2 90.9 215.3C89.6 214.3 88.4 213 87.1 211.9C84.4 209.7 85.9 206.6 85.6 204C85.3 201.4 85 199.2 83.3 197C82 195.4 82.8 192.7 83.4 190.9C84.5 187.2 84.1 183.4 85.3 179.6C86.9 174.5 89.5 169.9 90.5 164.6C91.3 160.5 90.1 157.5 87.8 154.7C86.2 152.7 85.7 151.1 88 149.4C90.6 147.5 89.8 145.1 88.7 142.9C88 141.5 87.8 140.4 88.4 139.1C89.5 136.8 88 134.6 88.2 132.2C88.4 129 88.8 126 89.7 123C90.4 120.5 91.1 118.2 88 116.6C86.9 116.1 86.4 114.8 86 113.5C85.3 110.9 84.3 110.7 82.2 112.3C81.8 112.6 81.4 112.8 81 113.1C80.2 113.7 79.2 114.5 78.4 113.6C77.5 112.6 78.7 111.8 79.3 111.2C80.8 109.9 81.4 108.2 81.5 106.3C82.7 103.5 85.2 101.5 87.2 99.4C92.7 93.7 97.9 87.9 104.1 82.9C106.3 81.1 108.3 79.2 110.4 77.3C111.2 76.5 112 75.8 113.2 76C115.1 76.3 116.8 76.8 117.4 79.2C117.8 80.7 119.1 81.1 120.3 79.7C121.4 78.4 123 78.2 124.2 77.3C124.6 77 125.5 76.6 125.8 76.8C129.3 79.3 130.3 75.7 132.1 74.2C133.2 73.3 133.9 73 135.1 74C136.4 75.1 137.7 75.9 138.5 73.4C138.7 72.7 139.4 72.3 140.1 73C141.3 74.2 142.8 74.9 144.3 75.7C144.7 75.9 145.3 76.2 145 76.7C144.6 77.5 144.1 78.2 145.5 78.2C146.6 78.2 148.1 78.7 148.3 77C148.8 73.4 151.2 72.8 154.2 73C154.8 73 155.5 73.1 155.6 72.3C155.7 71.8 155.1 71.6 154.8 71.2C154.2 70.6 152.5 71.1 152.8 69.6C153.1 68.5 154.3 68.1 155.3 67.8C156 67.5 156.8 67.4 156.9 66.1C153.8 66.6 151.3 68.2 148.7 69.7C148.1 70 147.6 70.6 147 70.9C145.8 71.5 144.9 70.8 144.1 70.1C143.2 69.3 144.1 68.7 144.5 68.1C145.4 66.5 146.5 65.4 148.5 65.2C149.2 65.1 152.3 65.7 150.3 62.7C149.7 61.8 151.1 60 152.5 59.7C154.9 59.1 157.4 58.8 159.9 58.4C160.1 58.4 160.4 58.4 160.5 58.5C162.2 61.3 164.1 59.8 166 58.9C167 58.4 167.8 58.1 168.4 59.4C169 60.7 167.8 60.8 167.2 61.4C165.9 62.5 163.8 61.3 162.6 63.1C163.5 64.2 164.7 63.7 165.8 63.7C168 63.7 170.1 64 171.7 65.7C172.6 66.7 173.3 66.8 173.7 65.3C174.5 62.3 177.1 60.8 179.3 58.9C179.7 58.5 180.1 57.9 180.8 58.2C181.5 58.6 181.3 59.5 181.1 60.1C180.3 62 179.5 64 178.6 65.9C176.9 69.5 178.8 72.5 182.7 72.3C183.6 72.3 184.6 71.7 184.9 72.9C185.2 74.1 183.9 74.1 183.1 74.3C180.2 75.2 178 77.4 175.4 78.8C173.9 79.6 172.9 80.3 172.2 78C171.8 76.6 170.5 76 168.9 76.1C167.7 76.2 167.2 76.9 166.8 77.9C166.3 79.1 167.6 79 168.1 79.5C170.4 81.7 173.8 81.1 176.3 82.9C177.2 83.5 178.8 82.3 179.6 81.5C180.8 80.3 182.5 79.5 183.6 78.4C186 75.1 188.4 74.3 191.6 76.1C191.6 77.1 191.6 78.1 193.3 78.2C193 77 192.4 76.5 191.6 76.1ZM99.8 108.4C99.1 108.7 99.1 109.1 99.4 109.7C98.1 110 98.5 111 98.5 111.8C98.5 127.6 98.5 143.4 98.5 159.2C98.5 159.9 98 161.1 99.5 161.2V161.4C99.3 162.3 98.1 163.6 100.4 163.3C100.6 163.5 100.7 163.7 100.9 163.9C100.9 164.8 101.3 165.2 102.2 165C102.1 166.6 103.5 167.5 104.3 167.2C106.5 166.1 109.7 169 111.2 165.4H111.3C111.7 165.5 111.9 165.4 112.1 165C112.9 165.1 113.3 164.7 113.4 163.9C113.7 163.5 114 163.1 114.3 162.7C116.2 162.2 115.7 160.6 115.7 159.3C115.7 147.1 115.8 134.9 115.7 122.7C115.7 120 116.5 119.3 119.1 119.3C130.9 119.4 142.7 119.4 154.5 119.4C156.6 119.4 158.6 119.2 159.6 116.9L159.5 117C160.9 117.4 161.5 116.4 162 115.5C164.1 111.7 162.3 105.1 158.6 102.9C157.6 102.3 157.2 102.8 156.7 103.5C156.5 103.5 156.2 103.4 156 103.4C155.7 102.4 154.9 102.5 154.1 102.5C138.7 102.5 123.3 102.5 107.9 102.5C107.5 102.5 106.5 102.1 107.1 103.2C104.6 103.9 102.3 105.1 100.7 107.2C99.9 107.3 99.7 107.8 99.8 108.4ZM191.2 178C191.1 176.3 193.2 171.8 194.2 171.7C196.3 171.5 198.6 170.9 200.5 171.5C202.1 172 201.7 174.6 202 176.3C202.3 178.1 202.9 179.3 204.9 179.2C206.8 179.1 206.7 177.4 206.9 176.1C207.1 175 206.9 174 208.5 173.9C210.8 173.8 210.4 172.5 209.6 171.1C208.5 169.2 206.8 168.6 204.7 168.9C203.9 169 203 169.5 202.5 168.9C200.3 166.1 196.7 164.6 195.8 160.7C195.2 158 192.8 157.5 190.3 158.5C186.5 160.1 183.7 163.3 179.9 164.7C179.4 164.9 178.3 165 178.7 165.9C179.1 166.8 179.9 166.6 180.7 166C183 164.2 185.5 164.3 188.2 165.1C189.1 165.4 190.1 165.5 191.1 165.6C192.2 165.8 193.4 165.9 193.6 167.2C193.8 168.5 193.5 169.7 192.1 170.3C191 170.7 189.8 171.5 189.9 172.4C190.3 175.7 187.7 178 187.4 181C187.3 181.8 186.4 182.5 187.5 183.3C188.5 184 189.5 184.6 190.7 184.2C191.7 183.9 191.9 183 191.9 182.1C191.6 180.8 191.7 179.3 191.2 178Z" fill="#132B3D"/>
<path d="M411.9 407.7C410.5 404.9 412.2 402.8 413.5 400.7C416.6 395.6 420.5 391 422.8 385.6C424.5 381.6 426.2 377.5 428.1 373.5C430.4 368.7 432.7 364 436 359.7C438.6 356.3 439.1 351.9 439.8 347.8C440.3 345.2 441 342.7 441.4 340.1C441.8 337.9 442.4 335.4 440 333.8C439.1 333.2 439.7 332.6 440 332C442 328.1 443.9 324.1 445.2 319.8C445.5 318.6 445.2 317.6 445.6 316.5C446 315.6 446.1 314.5 445.2 313.8C444.2 313.1 443.7 314.3 443 314.7C441.7 315.4 440.9 315.4 440.5 313.7C440.1 312.2 440 310.6 440 309.1C439.9 307.2 439 306.6 437.3 307.5C433.4 309.6 429.1 311 425.5 313.7C424 314.8 422.1 315.2 420.3 314C419.1 313.2 418.3 313.5 417.3 314.6C413.4 318.8 410.9 317.5 407.4 313.5C403.8 309.3 401.7 304.3 400.6 299C400.4 297.9 399.9 296.9 398.9 296.1C396.6 294.2 396.1 291 393.2 289.5C391.8 288.8 391.6 281.9 392.8 280.5C396.5 276.2 397.3 271.2 395.8 266.1C394.5 261.8 393.9 257.8 397.3 254.3C399.8 251.7 400.2 248 402.3 245.4C405.6 241.4 407.8 236.4 411.8 232.9C412.8 232 413.5 230.8 413.1 229C412.2 224.8 413.7 221 416.3 217.6C418.9 214.2 420.9 210.5 420 205.9C419.6 203.7 418.9 202 416.2 202.3C414.8 202.4 413.9 201.8 413.7 200.5C413.6 199.5 412.8 199 412.4 198.3C411.2 196.1 409.9 194.1 412 191.4C414 188.7 411.6 186.2 410.9 183.6C410.7 183 410.1 182.5 409.9 181.9C408.8 179.3 409.8 178.2 412.6 178.4C416.7 178.7 420.7 178.7 424.8 178.9C426.1 178.9 426.6 178.6 426 177.2C424.8 174.5 425.1 171.2 422.1 169.4C421.5 169.1 422.4 168.2 422 167.4C420.9 165.1 419.7 163 417.3 161.7C415.5 160.7 415.4 159.2 417.7 158.8C421.9 158 422.7 153.9 425.1 151.5C425.9 150.7 425.4 148.9 425.3 147.7C425.2 145.4 427.8 144.2 426.9 141.9C427.9 141.4 428.8 142.2 429.7 142.1C431 141.9 432.9 142.6 432.1 139.9C431.8 139 432.7 138.3 433.4 138.3C434.3 138.3 435 139.1 435.2 139.9C435.5 141.1 435.4 142.5 437.3 142.3C436.6 137.3 436.6 137.3 440.7 136.2C444.8 140.7 446.9 146.4 449.8 151.7C457.2 165.5 462.3 180.3 466.4 195.4C466.5 195.8 466.5 196.2 466.5 196.6C463.8 197 464.2 197 464.2 199C464.2 200.3 463.1 201.7 462.4 203.1C462.2 203.5 461.7 203.6 461.4 203.3C460.5 202.4 459.1 201.6 459.5 200.2C460.2 197.7 458.4 196.4 457.1 194.7C457.6 198.1 456.6 201.5 457.3 204.9C457.6 206.2 457 206.9 456.1 207.2C455.2 207.5 454.2 206.9 453.8 205.8C453.3 204.3 453.5 203 454.4 201.7C455.7 199.8 455.1 197.8 453.7 196.2C453.1 195.5 452.3 194.9 451.7 194.1C448.6 189.3 446.6 183.8 444.2 178.7C443.3 176.9 442.4 175.4 440.5 174.6C439.8 175.4 440.3 176.1 440.6 176.6C441.4 178.1 441.4 179.3 440.1 180.5C438.7 181.8 437.6 180.9 436.2 180.5C435 180.2 434.8 177.5 433.4 179C432.5 180 434.2 181.2 434.8 182.3C436.2 184.8 436 185.9 433.6 187.3C432.1 188.1 431 189.2 431.3 191C432 195.2 428.9 198.5 428.7 202.6C428.7 203.2 427.7 204.3 427.3 204.3C424.2 203.9 423.7 207.1 421.5 208.1C422 208.5 422.3 208.7 422.6 209C426.7 212.5 429.5 212.2 433.1 208.3C435.1 206.2 437.8 204.6 440.8 205.4C442.8 206 444.6 206.1 446.5 205.8C449.4 205.3 451.2 206.4 451.3 209.3C451.4 211.9 451.5 214.5 451.1 217C450.8 218.7 451.4 219.3 452.6 220C454.7 221.1 457.9 221.3 456.9 225C456.9 225 457.1 225.1 457.1 225.2C458 227.3 460.6 227.5 461.7 229.5C462 230.1 463.1 229.2 463.1 228.4C463.2 227.4 463.1 226.4 463.2 225.5C463.2 224.7 464 223.5 464.4 223.9C465.4 224.8 466 225 466.9 224C468.1 225.9 471.2 225.3 472 227.8C473 229.5 472.8 231.4 473 233.2C474 244.4 474.2 255.6 473.6 266.8C472.6 283.7 469.7 300.3 464.9 316.6C459.5 334.5 452.1 351.6 442.6 367.8C437.8 376 432.4 383.7 426.8 391.3C422.1 396.7 417.3 402.4 411.9 407.7Z" fill="#132B3D"/>
<path d="M214.5 47.4C212.1 47.8 211.2 49.9 209.6 51.3C209.1 51.7 209.1 52.5 209.6 52.9C210.3 53.5 211.2 54 212 53.5C213.7 52.4 215.8 52.8 217.4 51.5C218.2 50.9 219.2 50.6 220.2 50.9C222.8 51.6 225 50.7 227.1 49.5C227.3 49.4 227.4 49.3 227.6 49.2C229 48.4 230.5 48.1 232.1 48.7C232.7 48.9 232.3 49.5 232.1 50C231.4 51.8 231.1 54.1 228.7 54.2C224.6 54.4 220.8 56.4 216.4 55.1C214 54.4 210.8 54.4 208 55.8C206.8 56.4 205.7 55.7 204.9 54.4C203.9 53 204.9 52.8 205.6 52C206.7 50.7 207.5 49.1 208.4 47.6C208.7 47.2 209.1 46.8 208.7 46.3C208.3 45.8 207.6 45.9 207.1 46.2C206.5 46.5 205.8 46.9 205.5 47.5C204 50 201.5 50.2 199.1 50.8C198.5 51 197.7 51.5 197.5 50.4C197.3 49.6 197.2 48.6 198.3 48.5C200.1 48.3 201.2 47.5 201.6 45.7C201.8 44.9 202.6 44.8 203.2 44.8C208.6 45.2 213 41.9 218.1 40.9C219.7 40.6 221.2 40.1 222.9 40.1C224.6 40.1 226.4 40.2 227.5 38.3C228.3 37.1 230 38.2 231.1 37.2C230.1 36.1 229 36.5 228 36.8C226.8 37.2 225.7 37.2 224.6 36.7C223.7 36.3 222.4 36.2 222.8 34.9C223.2 33.9 224.2 32.9 225.5 33.3C230.3 35 234.4 31.7 239 31.5C235.6 31.3 232.3 30.7 228.9 31.5C232.4 29.4 236.2 27.9 240.3 27.8C242.9 27.7 245.6 28 248.2 27.7C251.6 27.3 254.4 29.2 256.8 30.7C259.2 32.3 261.4 31.9 262.6 30.9C266.6 27.6 270.9 29.1 275.1 29.4C277.1 29.5 279.1 30.1 281.1 29C288.4 30.1 295.6 31.5 302.8 33.4C308.6 34.9 314.5 36.2 320.2 38.4C320.9 38.7 321.7 38.9 322.2 39.5C322.9 41.9 323.5 44.3 326.4 45C327 45.2 327.6 46 328.1 46.5C329 47.6 330 48.3 331.5 48.3C333 48.3 334.2 49.2 335.3 50.2C336.3 51.2 336.6 51.9 334.9 52.4C334.5 52.5 333.4 52.7 334 53.4C334.5 54.1 334.4 55.2 335.4 55.5C338.2 56.4 339.6 58.5 338.8 61.2C338.4 62.4 338.9 62.5 339.3 63.3C340.9 66.4 344 68.4 345 71.9C345.4 73.1 345.4 73.8 344.7 74.7C342.2 77.6 339.9 80.8 335.2 80C330.8 79.2 328.8 82.2 327.3 85.6C326.3 88 325 89 322.2 88.8C320.6 88.7 318.9 89.7 317.3 90.3C316.6 90.6 316.2 91.4 316.5 92.3C317.4 95.5 317.3 98.7 315.1 101.3C313.3 103.4 314.6 105.8 314.1 108C313.8 109.3 313.9 110.6 312.5 111.1C311.2 111.6 310.4 110.6 309.6 109.7C307.9 107.6 305.5 107.9 303.2 107.9C301.5 107.9 299.9 107.7 299.2 106.1C297.4 102.3 293.9 100.1 291.4 96.9C288 92.5 285.3 87.8 283.7 82.5C283.1 80.3 284.7 78.6 286.5 77.5C289.1 76 289.3 75.5 288.3 72.5C287 75 281.9 75.6 280.2 73.1C279.7 72.3 280.4 70.5 280.9 69.2C281.2 68.4 282.1 68.7 282.6 69.2C284.1 70.5 285.6 69.1 287.1 69.2C287.2 69.7 287.2 70.3 287.9 70.5C288 70.5 288.2 70.3 288.2 70.2C288.3 69.4 287.7 69.3 287.1 69.2C286.4 66.9 284.5 65.7 282.8 64.4C281.4 63.3 280.3 64.4 279.2 65.3C278.8 65.7 278.5 66.4 277.8 65.9C277.1 65.5 276.9 64.7 277.3 64.1C279.3 60.8 276.7 58.6 275.2 56.7C273.2 54.1 271.5 51.3 268.7 49.2C266.4 47.5 264.2 46.5 261.3 46.9C258.6 47.3 255.9 46.8 253.2 46.1C250.8 45.4 249.8 41.4 251.4 39.5C252.7 37.9 254.2 36.6 256.6 35.2C254.8 34.9 253.7 35.1 253 35.7C251.5 36.9 250 37.1 248.1 36.6C245.9 35.9 245.1 38.6 243.2 38.9C243.1 38.9 243 39.2 243 39.4C242.5 42.8 241.3 43.8 237.7 44.9C233.5 46.1 229.2 46.9 224.9 46.8C224.4 46.8 223.6 47 223.7 46.5C224.2 42.5 221.1 44.6 219.7 44.3C217.6 43.8 215.7 45.2 213.5 45.6C213.7 46.4 214.6 46.5 214.5 47.4Z" fill="#132B3D"/>
<path d="M471.7 227.2C470.9 224.7 467.8 225.3 466.6 223.4C465.7 224.3 465.1 224.1 464.1 223.3C463.7 222.9 462.9 224 462.9 224.9C462.9 225.9 462.9 226.9 462.8 227.8C462.7 228.7 461.7 229.6 461.4 228.9C460.3 226.9 457.7 226.6 456.8 224.6C456.8 224.5 456.6 224.4 456.6 224.4C457.6 220.7 454.4 220.5 452.3 219.4C451.1 218.8 450.5 218.1 450.8 216.4C451.2 213.9 451.1 211.3 451 208.7C450.9 205.8 449.1 204.7 446.2 205.2C444.3 205.5 442.5 205.4 440.5 204.8C437.5 203.9 434.8 205.6 432.8 207.7C429.2 211.6 426.5 211.9 422.3 208.4C422 208.2 421.7 207.9 421.2 207.5C423.4 206.5 423.9 203.3 427 203.7C427.4 203.8 428.4 202.6 428.4 202C428.5 198 431.7 194.7 431 190.4C430.7 188.6 431.8 187.5 433.3 186.7C435.7 185.3 435.9 184.2 434.5 181.7C433.9 180.6 432.2 179.4 433.1 178.4C434.4 176.9 434.7 179.5 435.9 179.9C437.3 180.3 438.4 181.2 439.8 179.9C441.1 178.7 441.1 177.4 440.3 176C440 175.4 439.5 174.8 440.2 174C442.1 174.8 443 176.3 443.9 178.1C446.4 183.3 448.3 188.7 451.4 193.5C451.9 194.3 452.7 194.9 453.4 195.6C454.8 197.3 455.4 199.2 454.1 201.1C453.2 202.5 453.1 203.8 453.5 205.2C453.9 206.3 454.8 206.8 455.8 206.6C456.7 206.3 457.2 205.6 457 204.3C456.3 200.9 457.3 197.5 456.8 194.1C458.1 195.8 459.8 197.1 459.2 199.6C458.8 201 460.2 201.8 461.1 202.7C461.4 203 461.9 202.9 462.1 202.5C462.8 201.2 463.9 199.8 463.9 198.4C463.8 196.4 463.5 196.4 466.2 196C469 206.4 471.4 216.6 471.7 227.2Z" fill="#183449"/>
<path d="M427.1 115.9C427 116.8 427.4 118.1 426.3 118.5C425.1 118.9 425.2 117.5 424.6 116.9C424.1 116.3 423.8 115.5 422.6 115.7C423 118.4 424.1 120.5 426.2 122.2C428.3 123.9 430.6 125.4 431.8 128C432.2 128.9 432.6 129.6 431.7 130.6C430.3 132 429.4 132.3 428.3 130.2C426.3 126.5 424.2 122.8 421.1 119.8C420.4 119.2 419.8 117.8 418.8 118.6C418 119.3 419 120.3 419.4 121.2C419.9 122.5 422.2 123.9 420.6 125C419.4 125.8 418.2 123.5 417.3 122.4C415.1 119.7 413.6 116.5 411 114C409.5 112.7 411.1 112.1 411.9 111.7C413.3 111 413.3 110.7 412.7 109.1C411.8 106.5 409.8 104.6 409 101.9C408.2 99.2 405.8 96.3 403.5 94C403.1 93.6 402.3 93 401.7 93.5C399.6 95.2 399.2 93 398 92C399.1 91.5 400.6 92.4 400.9 91.1C401.2 90.2 400 89.8 399.4 89.2C397.8 87.7 398.4 86.3 399.7 85C406.4 90.9 412.5 97.5 418.3 104.2C421.5 107.8 424.7 111.6 427.1 115.9Z" fill="#132B3D"/>
<path d="M197.7 232C202.2 216.9 211.8 204.8 221.2 192.7C227.4 184.7 232.8 176.3 236.7 167C242.8 152.2 243 137.3 238.2 122.2C238.1 121.8 238 121.5 237.7 120.4C252.1 129.1 262.5 140.8 271.3 154.1C271.9 155.1 272.5 156.1 273.1 157.1C274.8 161 276.5 164.9 278.2 168.8C282.1 179.5 284 190.6 283.1 202C282.5 209.2 280.5 216.1 278.7 223.1C276.5 231.5 275.7 239.8 277.8 248.3C278.7 251.7 279.8 255 282.5 257.5C285.2 259.9 288.1 260.5 291.4 259.1C294.7 257.7 296.4 255.3 296.6 251.6C296.9 246.8 295.2 242.4 294 237.9C289.2 219.4 296.4 199.5 312.1 188.7C312.2 188.6 312.5 188.6 312.9 188.5C312.5 190.9 312.1 193.2 311.7 195.6C310.2 205.6 312.3 214.9 316.8 223.9C320.7 231.8 325.6 239.1 330.2 246.5C338.4 259.8 342.6 274.1 342.1 289.8C341.5 309.8 334.4 327 320.9 341.6C320.5 342 320.2 342.5 319.9 343V343.1C319.7 343.3 319.4 343.5 319.2 343.7C313.9 348.9 308.3 353.6 302 357.5C290.3 364.9 277.7 369.9 263.8 371.4C269.6 368.6 275.4 365.9 280.5 362C297.7 349.3 306.7 332.5 305.3 310.8C305 306.7 304.7 302.5 303.2 298.3C296.7 312.5 289.9 320.2 283.2 320.9C285.2 313.8 285.7 306.7 283.9 299.6C281.5 290.1 275.5 282.6 269.1 275.5C264.8 270.8 261 265.8 258.7 259.8C254.6 249 252.4 238 253.8 226.4C254.2 222.8 254.9 219.3 255.4 215.4C254.8 215.7 254.5 215.8 254.3 216C242.9 226.4 232.8 237.8 227 252.3C223.2 261.7 221.8 271.4 223.4 281.5C224.1 285.5 225.3 289.5 225.7 293.5C226.2 299 223.2 301.8 218 300.9C211.8 299.9 208.4 295.5 205.9 290.2C204.7 287.8 204.1 285.2 203.4 282.1C202.6 283.2 202.1 283.8 201.8 284.5C195.2 296.8 193.1 309.8 196.1 323.5C200.7 344.2 213 358.8 232 368C235.5 369.7 239.3 370.5 242.9 372C241.1 371.9 239.2 372 237.4 371.7C223.3 369.4 210.3 364.4 198.3 356.7C187 348.9 177.3 339.7 170.4 327.7C160.7 310.9 156.8 292.9 158.9 273.6C160.3 260.3 164 247.8 170.6 236.1C171 235.3 171.5 234.6 171.4 233.6C172.8 232.9 173.2 231.3 173.9 230.2C176.9 225.6 180 221 184.1 216.5C184.1 220.2 183.2 223.3 183.7 226.5C183.9 236.7 188.6 244.8 195.9 252.6C195.2 245.1 196.1 238.5 197.7 232Z" fill="#DC3C2A"/>
<path d="M263.7 371.5C277.6 370 290.1 365 301.9 357.6C308.2 353.7 313.8 349 319.1 343.8C319.4 343.6 319.6 343.4 319.8 343.2V343.1C320.7 344.3 321.8 344.7 323.4 344.2C325 343.7 326.6 343.4 328.2 342.9C329.6 342.4 330.9 342.7 331.7 343.7C333.2 345.6 335.2 346.6 337.2 347.8C341.6 350.3 342.2 356 338.6 359.6C334.7 363.5 331 367.7 326.8 371.4C324.7 373.2 324 376 323.6 378.7C323.3 380.8 322.1 382.5 321.6 384.4C319.8 390.5 313.5 393.2 311.2 398.9C310.9 399.6 310.3 399.7 309.8 399.6C303.2 398.5 298.3 402.4 293 405.1C290.3 406.4 290.6 409.6 289.8 412C289 414.4 288.5 416.1 285.4 416.2C280.8 416.4 278.6 420.2 276.4 423.5C273 428.7 268.8 430.2 263 428C262.4 427.8 261.9 427.8 261.3 428.1C261.4 429.1 262.2 429.6 262.8 430.2C263.8 431.3 263.7 431.9 262.6 433.3C260.7 435.6 259.1 437.8 256 438.5C255.5 438.6 255 439 254.6 438.9C251 438 249.3 439.3 249.1 442.9C249.1 444.1 248.2 444.2 247.2 444.2C245.9 444.1 244.5 443.8 243.2 444C242.2 444.1 239.3 444 242.2 446.2C242.8 446.6 242.6 447.2 242.2 447.8C241.6 448.5 241 449.1 240 448.7C239.3 448.4 238.3 447.9 237.8 448.6C237.1 449.5 238.2 450.2 238.8 450.8C239.9 452 239.2 452.5 238.2 452.8C237.6 453 236.8 452.9 236.2 453.1C235.2 453.4 234.2 453.9 234.2 455C234.2 456.4 235.5 455.7 236.2 455.9C236.8 456.1 237.5 456.3 238.2 456.4C238.7 456.5 239.2 456.6 239.3 457.2C239.4 457.9 238.8 458.2 238.4 458.5C238.2 458.7 237.9 458.7 237.6 458.7C235.3 459.1 233.7 460.7 233.6 462.8C233.6 464.4 235.3 465.8 236.6 467.1C237.3 467.8 238.9 467 238.8 468.4C238.7 469.7 236.8 468.9 236.2 469.9C235.4 470 234.7 469.1 234 469.7C231.4 471.6 229 469.7 227.5 468.5C224.1 465.9 220.9 463.1 217.7 460.2C215.9 458.6 217.3 457.7 219.2 457.6C219.3 457.6 219.4 457.7 219.4 457.7C219.3 457.7 219.2 457.6 219.2 457.6C219 456 217.3 456.5 216.6 455.6C216.4 455.3 216.1 455 216 454.7C216 454.2 216.5 454.1 216.8 454.1C219.4 454 220.7 453.3 218.8 450.5C217.8 449 220.4 448 220 446.1C218.7 446.3 217.4 446.6 216.1 446.8C215.6 446 216.3 445.8 216.6 445.3C217.9 443.4 219.3 441.8 218.1 439C217.1 436.6 217.7 433.4 219.4 431.5C223.3 427.3 222.3 422.6 221.7 417.8C221.6 417.4 221.4 417 221.5 416.7C223.6 411.7 223.4 406.4 223.8 401.2C223.9 400.3 224.1 399.2 224.7 398.4C227.4 394.8 225 391.4 224.4 387.9C223.7 383.5 220.5 381.7 217 380.1C209.9 376.7 204.3 371.7 200.3 365C199.3 363.3 198.2 361.5 197.1 359.7C196.2 358.2 196.5 357.4 197.9 356.7C209.9 364.4 223 369.4 237 371.7C238.8 372 240.6 371.9 242.5 372C249.7 373 256.7 372.7 263.7 371.5Z" fill="#132B3D"/>
<path d="M345.9 118.7C344.3 118.1 342.9 117 341.7 115.8C341.5 115.6 341.4 115.3 341.2 115.1L341.3 115.2C341.1 114.8 341.1 114.2 340.6 114V114.1C340.5 112.5 339.5 111.1 340 109.5V109.6C340.8 109.2 340.5 108.4 340.8 107.9C341.8 106.2 343.2 104.9 344.8 103.8C345.2 103.7 345.6 103.6 346 103.4V103.5C358 103.4 370 103.4 382 103.3C386.3 103.3 390.6 103.4 394.9 103.5L395 103.4C395.8 103.7 396.6 104 397.5 104.3C400.6 106.3 402.4 109.1 402.6 112.8C402.6 114 402.5 115.1 402.5 116.3C402.5 131 402.4 145.8 402.4 160.5C402.1 162 401.2 163.2 400.4 164.4C399.8 164.8 399.2 165.3 398.5 165.7L398.6 165.6C398 165.9 397.2 165.6 396.8 166.2L396.9 166.1C395.5 166.5 394 166.4 392.5 166.2C387.6 164.6 386.5 160.9 386.8 156.3C386.8 155.1 386.8 154 386.8 152.8C386.8 152 386.8 151.2 386.8 150.4C386.8 140.8 386.8 131.3 386.8 121.7C386.8 121.5 386.8 121.3 386.8 121.1C386.8 120.7 386.8 120.3 386.8 120C386.8 119.8 386.8 119.6 386.8 119.4C386.1 118.1 384.9 118.8 384 118.8C371.2 118.8 358.5 118.8 345.9 118.7Z" fill="#F8F5F2"/>
<path d="M111.9 342.3C112.3 342.6 112.6 343 113 343.3C113.4 343.9 113.8 344.5 114.2 345.1H114.1C115 347.5 114.8 350.1 114.8 352.6C114.8 363.8 114.9 375 114.7 386.2C114.7 388.4 115.2 388.9 117.4 388.9C129.5 388.8 141.6 388.8 153.7 388.8C157.9 388.8 160.6 391 161.2 395C162 400.3 159 403.9 153.5 404.3C138.9 404.3 124.2 404.2 109.6 404.2C107.6 404.2 105.7 404.1 103.9 403.3L104 403.4C103.8 403.3 103.5 403.1 103.3 403C101.4 401.7 100.2 399.7 99.2 397.6C99.2 380.5 99.2 363.3 99.3 346.2L99.2 346.3C99.5 345.7 99.8 345.2 100 344.6C100.3 344.1 100.6 343.7 100.9 343.2L100.8 343.3C101 343.1 101.2 342.9 101.5 342.6L101.4 342.7C102 342.3 102.6 341.9 103.2 341.5L103.1 341.6C105.6 340.7 108.1 340.7 110.6 341.6H110.5C111.1 341.8 111.5 342 111.9 342.3Z" fill="#F8F5F2"/>
<path d="M341.1 391.9C343 389.5 345.5 388.7 348.5 388.8C360.3 388.9 372.1 388.8 383.9 388.9C386 388.9 386.7 388.5 386.6 386.2C386.5 373.6 386.5 361.1 386.6 348.5C386.6 345.1 388.4 342.6 391.3 341.5C394.6 340.3 398.1 341.1 400.4 343.6C401.6 344.9 402.1 346.4 402.1 348.1C402.1 364 402.2 379.9 402.2 395.8C402.2 397.5 401.4 399 400.8 400.5C400.2 401.1 399.6 401.7 399 402.3C398.8 402.5 398.5 402.7 398.3 402.8L398.4 402.7C396.2 403.8 393.8 404.1 391.4 404.1C377.3 404 363.2 404.1 349 404.1C347.3 404.1 345.7 403.9 344.2 403.3C343.2 402.3 342.3 401.3 341.3 400.3C340 397.6 339.9 394.8 341.1 391.9Z" fill="#F8F5F2"/>
<path d="M278.2 168.7C276.5 164.8 274.8 160.9 273.1 157C273.2 156.2 273.5 155.9 274.5 156C277.1 156.3 279.6 155.9 281 153.3C281.6 152.2 282.7 152.1 283.6 151.5C284.5 150.8 285.6 149.9 286.8 150.7C288 151.5 287 152.7 286.7 153.6C286.1 155.8 288.1 155.4 289 155.6C291.1 155.9 293.5 155.5 291.7 159C291.2 160 292.6 161 293.5 161.3C296.1 162 296.3 163.8 295.6 165.7C294.8 167.8 291.4 168.5 289.6 167C286.9 164.8 284.1 164.6 281 166.1C279.6 166.8 279.8 168.7 278.2 168.7Z" fill="#132B3D"/>
<path d="M352.8 89.8C354.4 89.4 356.3 90.7 357.7 88.7C358.2 88 359.5 88.4 360.5 88.7C362.2 89.2 363.8 89.8 365.5 90.2C368.5 90.9 368.9 93.5 369.6 95.9C369.8 96.5 369.2 97 368.8 97.3C365.9 99.2 362.8 100.7 359.5 101.7C357.3 102.4 354.7 101.8 352.5 100.8C351.6 100.4 348.4 91.1 348.9 90.3C349.9 88.8 351.5 90.7 352.8 89.8Z" fill="#132B3D"/>
<path d="M409.6 145.4C409.4 142.5 410 141.8 411.7 143.5C412 143.8 412.4 144 412.7 143.7C412.9 143.5 413 142.9 412.9 142.7C411.2 140.3 411.3 136.9 408.4 135.1C407.8 134.7 407.7 133.5 407.3 132.8C406.2 131.2 406.8 128.6 404.2 127.6C403.2 127.2 403.7 125.1 404 123.8C404.2 122.8 405.2 123 406 123C406.5 123 406.9 123.1 407 123.7C407.6 127.1 410.3 129.5 411.6 132.5C413.7 137.3 418.5 139.6 421.4 143.6C422.1 144.6 421.6 150 420.6 150.6C419.4 151.4 411.8 150.7 411.1 149.5C410.1 148.1 409.9 146.3 409.6 145.4Z" fill="#132B3D"/>
<path d="M185.2 48C184.6 49.2 184.1 50.4 183.5 51.6C183.4 51.8 182.9 52.1 182.9 52.2C185.2 56.4 180.9 54.6 179.8 55.3C177 56.8 174 58.2 170.7 56.9C170.2 56.7 169.2 57.5 169.2 56.9C168.9 55.2 167.6 54.2 166.8 52.9C169.6 52 168.4 47.9 171 47.3C175.4 46.4 179 43.6 183.5 42.9C184.9 42.7 186.3 41.6 188 41.6C188.6 41.6 189.5 41.1 189.7 42.1C189.9 42.9 189 43.2 188.4 43.4C186.3 44 184.5 45.3 182.4 45.9C180.4 46.5 178.2 46.9 176.3 47.8C177.1 49.2 178.3 47.7 179.2 48.2C179.6 49.1 177.8 49.6 178.8 50.5C179.6 51.1 180.3 50.3 181 50.3C182.6 50.3 183.1 47.6 185.2 48Z" fill="#132B3D"/>
<path d="M153.5 404.2C159 403.8 162 400.2 161.2 394.9C160.6 390.9 158 388.7 153.7 388.7C141.6 388.7 129.5 388.6 117.4 388.8C115.2 388.8 114.7 388.3 114.7 386.1C114.8 374.9 114.8 363.7 114.8 352.5C114.8 350 115 347.5 114.1 345C115 345.3 115.9 345.5 115.8 346.9C114.9 357.8 115.6 368.7 115.4 379.6C115.3 387.1 115.4 387.1 122.8 387.1C133 387.1 143.3 387.1 153.5 387.1C157.2 387.1 161 389.6 161.9 392.6C163 395.9 161.4 401.9 159 403.9C157.3 405.3 155.3 404.6 153.4 404.7C153.6 404.6 153.6 404.4 153.5 404.2Z" fill="#132B3D"/>
<path d="M386.6 152.9C386.6 154.1 386.6 155.2 386.6 156.4C385.7 157.4 386.4 158.7 386 159.9C385.3 159.2 385.6 158.3 385.6 157.6C385.6 146 385.5 134.4 385.7 122.9C385.7 120.1 384.8 119.5 382.2 119.6C370.3 119.7 358.5 119.7 346.6 119.6C346.3 119.6 346.1 119.5 345.8 119.4C345.8 119.4 345.9 119.1 345.9 118.9C358.5 118.9 371.2 118.9 383.8 119C384.7 119 385.9 118.3 386.6 119.6C386.5 119.7 386.4 119.7 386.4 119.8C386.4 120 386.5 120.1 386.6 120.2C386.6 120.6 386.6 121 386.6 121.3C386.5 121.4 386.4 121.4 386.4 121.5C386.4 121.7 386.5 121.8 386.6 121.9C386.6 131.5 386.6 141 386.6 150.6C385.9 151.3 385.9 152.1 386.6 152.9Z" fill="#0E1B23"/>
<path d="M208.3 72.3C208.3 70.5 208.6 69.5 207.9 68.4C206.9 66.8 208.4 63.3 210.6 62C212.6 60.9 214.8 60 216.9 59.2C217.9 58.8 219 59.2 219.5 60.1C220.2 61.3 218.8 61.4 218.2 61.9C216.4 63.6 213.8 64.3 213.2 67.5C212.9 69.2 210.4 70.4 208.3 72.3Z" fill="#132B3D"/>
<path d="M344.1 403.4C345.7 404 347.3 404.2 348.9 404.2C363 404.2 377.1 404.1 391.3 404.2C393.8 404.2 396.1 403.9 398.3 402.8C397.1 405.4 394.6 405.2 392.6 405.2C377.9 405.4 363.2 405.3 348.6 405.2C347 405.2 344.9 405.5 344.1 403.4Z" fill="#132B3D"/>
<path d="M153.5 404.2C153.5 404.4 153.5 404.5 153.6 404.7C153 405.3 152.2 405.2 151.4 405.2C137.2 405.2 123 405.3 108.9 405.2C107.1 405.2 105 405.5 103.9 403.3C105.7 404 107.7 404.2 109.6 404.2C124.3 404.2 138.9 404.2 153.5 404.2Z" fill="#0E1B23"/>
<path d="M346.5 387.8C358.4 387.8 370.3 387.7 382.2 387.9C384.8 387.9 385.7 387.3 385.7 384.5C385.5 373.2 385.6 361.9 385.6 350.5C385.6 349.5 385.3 348.4 386.1 346.8C386.1 353.6 386.1 359.8 386.1 366C386.1 372.6 386.1 379.3 386.1 385.9C386.1 387.1 386.2 388.3 384.4 388.3C371.7 388.3 359.1 388.3 346.4 388.3C346.4 388.1 346.5 387.9 346.5 387.8Z" fill="#0E1B23"/>
<path d="M402.1 160.4C402.1 145.7 402.2 130.9 402.2 116.2C402.2 115 402.3 113.9 402.3 112.7C402.4 112.1 402.5 111.4 402.7 110.8C402.8 110.8 403 110.8 403.1 110.8C403.1 115.6 403.1 120.5 403.1 125.3C403.1 136 403.1 146.7 403.1 157.4C403.1 158.4 403.7 159.8 402.1 160.4Z" fill="#0E1B23"/>
<path d="M99.2 346.2C99.2 363.3 99.2 380.5 99.1 397.6C97.8 397.7 98.5 396.7 98.5 396.2C98.5 380.3 98.5 364.4 98.5 348.5C98.5 347.7 98.2 346.7 99.2 346.2Z" fill="#0E1B23"/>
<path d="M394.7 103.4C390.4 103.3 386.1 103.2 381.8 103.2C369.8 103.2 357.8 103.3 345.8 103.4C346.2 102 347.4 102.5 348.2 102.5C362.9 102.5 377.5 102.5 392.2 102.5C393.2 102.5 394.4 101.9 394.7 103.4Z" fill="#0E1B23"/>
<path d="M214.4 130.8C214.9 129.6 213.5 126.9 216.7 128.1C217.6 128.5 218.5 129.4 217.4 130.6C217.1 130.9 217 131.2 216.8 131.6C216.3 132.4 215.5 134 215.3 133.9C213.8 133.3 214.8 131.8 214.4 130.8Z" fill="#132B3D"/>
<path d="M214.5 47.4C214.8 47.4 215.1 47.3 215.4 47.4C216.4 47.6 217.7 46.1 218.5 47.8C218.8 48.4 218.5 49 218 49.3C217 50 215.9 50.6 214.7 50.1C213.1 49.5 214.7 48.3 214.5 47.4Z" fill="#132B3D"/>
<path d="M341.1 391.9C339.8 394.8 340 397.6 341.2 400.5C338.5 398.3 338.5 394.3 341.1 391.9Z" fill="#132B3D"/>
<path d="M110.7 341.6C108.2 340.8 105.7 340.7 103.2 341.6C105.1 339.7 108.8 339.7 110.7 341.6Z" fill="#0E1B23"/>
<path d="M341.2 400.5C342.2 401.5 343.1 402.5 344.1 403.5C342.3 403.3 341.2 402.4 341.2 400.5Z" fill="#132B3D"/>
<path d="M339.9 109.5C339.4 111.1 340.4 112.6 340.5 114.1C339 112.8 338.8 111.2 339.9 109.5Z" fill="#0E1B23"/>
<path d="M392.2 166.2C393.7 166.3 395.1 166.4 396.6 166.1C395.2 167.6 393.6 166.8 392 166.7V166.5C392.1 166.3 392.2 166.3 392.2 166.2Z" fill="#0E1B23"/>
<path d="M114.2 345.1C113.8 344.5 113.4 343.9 113 343.3C114.3 343.3 114.3 344.2 114.2 345.1Z" fill="#0E1B23"/>
<path d="M103.3 341.6C102.7 342 102.1 342.4 101.5 342.8C101.5 341.4 102.4 341.5 103.3 341.6Z" fill="#0E1B23"/>
<path d="M397.2 104.1C396.4 103.8 395.6 103.5 394.7 103.2C395.8 103.1 396.9 102.6 397.2 104.1Z" fill="#0E1B23"/>
<path d="M398.9 402.3C399.5 401.7 400.1 401.1 400.7 400.5C400.8 401.7 400.2 402.4 398.9 402.3Z" fill="#132B3D"/>
<path d="M398.3 165.6C398.9 165.2 399.5 164.7 400.2 164.3C399.9 165.3 399.3 165.8 398.3 165.6Z" fill="#0E1B23"/>
<path d="M88.3001 118.1C88.2001 118.3 88.2001 118.5 88.1001 118.5C88.0001 118.5 87.8001 118.4 87.6001 118.3C87.7001 118.1 87.7001 117.9 87.8001 117.9C88.0001 117.9 88.1001 118.1 88.3001 118.1Z" fill="#132B3D"/>
<path d="M340.7 107.8C340.5 108.4 340.7 109.2 339.9 109.5C339.9 108.9 339.7 108.1 340.7 107.8Z" fill="#0E1B23"/>
<path d="M100.9 343.3C100.6 343.8 100.3 344.2 100 344.7C99.6 343.7 100 343.3 100.9 343.3Z" fill="#0E1B23"/>
<path d="M396.5 166.1C397 165.4 397.8 165.8 398.3 165.5C398 166.5 397.2 166.3 396.5 166.1Z" fill="#0E1B23"/>
<path d="M100 344.6C99.7 345.2 99.4 345.7 99.2 346.3C99.2 345.6 98.8 344.7 100 344.6Z" fill="#0E1B23"/>
<path d="M345.9 103.3C345.5 103.4 345.1 103.5 344.7 103.7C344.7 102.3 345.5 103.4 345.9 103.3Z" fill="#0E1B23"/>
<path d="M341.2 115.2C341.4 115.4 341.5 115.7 341.7 115.9C341.5 116 341.4 116 341.2 116.1C341.2 115.7 341.2 115.5 341.2 115.2Z" fill="#0E1B23"/>
<path d="M340.5 114.1C341 114.3 341.1 114.8 341.2 115.3C340.6 115.1 340.5 114.6 340.5 114.1Z" fill="#0E1B23"/>
<path d="M111.9 342.3C111.5 342.1 111.1 341.8 110.7 341.6C111.3 341.5 111.7 341.6 111.9 342.3Z" fill="#0E1B23"/>
<path d="M103.2 403C103.4 403.1 103.7 403.3 103.9 403.4C103.6 403.4 103.3 403.4 103.1 403.5C103.1 403.3 103.2 403.1 103.2 403Z" fill="#0E1B23"/>
<path d="M185.2 48C185.4 47.9 185.6 47.7 185.8 47.6C186 48.2 185.4 47.8 185.2 48Z" fill="#132B3D"/>
<path d="M398.2 402.8C398.4 402.6 398.7 402.4 398.9 402.3C398.7 402.5 398.5 402.7 398.2 402.8Z" fill="#132B3D"/>
<path d="M207.5 61.4C207.5 61.3 207.6 61.2 207.6 61.2C207.5 61.3 207.5 61.4 207.5 61.4Z" fill="#132B3D"/>
<path d="M236.2 469.8L236.4 469.9L236.3 470L236.2 469.8Z" fill="#132B3D"/>
<path d="M100.9 163.9C100.7 163.7 100.6 163.5 100.4 163.3C100.1 162.7 99.8001 162.1 99.5001 161.4V161.2C99.4001 160.1 99.1001 159.1 99.1001 158C99.1001 142.9 99.1001 127.9 99.1001 112.8C99.1001 111.7 99.3001 110.7 99.4001 109.6C99.5001 109.2 99.7001 108.7 99.8001 108.3L99.7001 108.4C100 108 100.2 107.6 100.5 107.2C102.1 105.1 104.4 103.9 106.9 103.2C123.2 103.3 139.5 103.3 155.7 103.4C155.9 103.4 156.2 103.5 156.4 103.5C162 106.6 163 111.7 159.2 117L159.3 116.9C157.2 118.4 155 118.8 152.4 118.8C140.7 118.7 129 118.8 117.3 118.7C115.3 118.7 114.7 119.2 114.8 121.2C114.9 133.3 114.8 145.4 114.9 157.5C114.9 159.3 114.8 161 114.1 162.6C113.8 163 113.5 163.4 113.2 163.8C112.8 164.2 112.4 164.5 111.9 164.9C111.6 165 111.4 165.1 111.1 165.3H111C107.9 166.7 105 166.4 102 164.9C101.7 164.6 101.3 164.3 100.9 163.9Z" fill="#F8F5F2"/>
<path d="M191.2 178C191.8 179.3 191.7 180.8 191.7 182.2C191.7 183.1 191.6 184 190.5 184.3C189.2 184.7 188.3 184.1 187.3 183.4C186.2 182.6 187.1 181.9 187.2 181.1C187.5 178.1 190.1 175.8 189.7 172.5C189.6 171.6 190.8 170.8 191.9 170.4C193.4 169.8 193.6 168.6 193.4 167.3C193.2 166 192 165.8 190.9 165.7C189.9 165.6 189 165.5 188 165.2C185.4 164.4 182.8 164.3 180.5 166.1C179.8 166.7 178.9 166.8 178.5 166C178.1 165.1 179.2 165 179.7 164.8C183.6 163.4 186.3 160.2 190.1 158.6C192.6 157.6 195 158.1 195.6 160.8C196.5 164.7 200.1 166.3 202.3 169C202.8 169.6 203.7 169.2 204.5 169C206.6 168.7 208.3 169.2 209.4 171.2C210.2 172.6 210.6 173.9 208.3 174C206.7 174.1 206.9 175.1 206.7 176.2C206.5 177.4 206.7 179.1 204.7 179.3C202.7 179.4 202.2 178.2 201.8 176.4C201.5 174.7 201.9 172.2 200.3 171.6C198.4 171 196.1 171.6 194 171.8C193.2 171.8 191.1 176.3 191.2 178Z" fill="#183449"/>
<path d="M197.7 232C196.1 238.5 195.3 245.1 195.7 252.8C188.4 245 183.7 236.9 183.5 226.7C184.1 228.4 185.2 229.3 187.2 229.1C190 228.8 192.8 228.7 194.8 231.3C195.6 232.3 197 230.7 197.7 232Z" fill="#183449"/>
<path d="M114.1 162.7C114.8 161.1 114.9 159.3 114.9 157.6C114.9 145.5 114.9 133.4 114.8 121.3C114.8 119.2 115.3 118.7 117.3 118.8C129 118.9 140.7 118.8 152.4 118.9C154.9 118.9 157.2 118.5 159.3 117C158.3 119.3 156.3 119.5 154.2 119.5C142.4 119.5 130.6 119.6 118.8 119.4C116.1 119.4 115.3 120.1 115.4 122.8C115.5 135 115.5 147.2 115.4 159.4C115.5 160.6 116 162.2 114.1 162.7Z" fill="#0E1B23"/>
<path d="M99.3999 109.7C99.2999 110.8 99.0999 111.8 99.0999 112.9C99.0999 128 99.0999 143 99.0999 158.1C99.0999 159.2 99.2999 160.2 99.4999 161.3C97.9999 161.2 98.4999 160.1 98.4999 159.3C98.4999 143.5 98.4999 127.7 98.4999 111.9C98.4999 111 98.0999 110 99.3999 109.7Z" fill="#0E1B23"/>
<path d="M155.8 103.4C139.5 103.3 123.2 103.3 107 103.2C106.4 102.1 107.4 102.5 107.8 102.5C123.2 102.5 138.6 102.5 154 102.5C154.7 102.5 155.5 102.4 155.8 103.4Z" fill="#0E1B23"/>
<path d="M159.3 117C163.1 111.7 162.1 106.7 156.5 103.5C156.9 102.7 157.4 102.3 158.4 102.9C162.1 105.1 164 111.7 161.8 115.5C161.3 116.4 160.7 117.4 159.3 117Z" fill="#0E1B23"/>
<path d="M102.1 165C105 166.5 108 166.8 111.1 165.4C109.6 169 106.5 166.1 104.2 167.2C103.5 167.5 102 166.6 102.1 165Z" fill="#0E1B23"/>
<path d="M191.6 76.1C192.4 76.5 193 77 193.3 78.2C191.7 78.1 191.6 77.1 191.6 76.1Z" fill="#183449"/>
<path d="M99.5 161.5C99.8 162.1 100.1 162.7 100.4 163.4C98.1 163.6 99.3 162.3 99.5 161.5Z" fill="#0E1B23"/>
<path d="M100.9 163.9C101.3 164.3 101.8 164.7 102.2 165C101.3 165.1 100.9 164.7 100.9 163.9Z" fill="#0E1B23"/>
<path d="M111.9 165.1C112.3 164.7 112.7 164.4 113.2 164C113.1 164.8 112.7 165.2 111.9 165.1Z" fill="#0E1B23"/>
<path d="M100.6 107.2C100.3 107.6 100.1 108 99.8 108.4C99.7 107.8 99.9 107.3 100.6 107.2Z" fill="#0E1B23"/>
<path d="M99.7999 108.4C99.6999 108.8 99.4999 109.3 99.3999 109.7C99.0999 109.1 99.0999 108.6 99.7999 108.4Z" fill="#0E1B23"/>
<path d="M111.1 165.4C111.4 165.3 111.6 165.2 111.9 165C111.8 165.4 111.5 165.5 111.1 165.4Z" fill="#0E1B23"/>
<path d="M287.1 69.6C287.7 69.7 288.2 69.8 288.2 70.6C288.2 70.7 288 71 287.9 70.9C287.2 70.8 287.2 70.2 287.1 69.6Z" fill="#183449"/>
<path d="M263.7 371.5C256.7 372.7 249.7 373 242.7 372C239.1 370.5 235.3 369.7 231.8 368C212.8 358.8 200.5 344.2 195.9 323.5C192.9 309.8 195 296.8 201.6 284.5C202 283.8 202.5 283.2 203.2 282.1C203.9 285.2 204.5 287.8 205.7 290.2C208.2 295.5 211.6 299.9 217.8 300.9C223 301.7 226 298.9 225.5 293.5C225.1 289.5 223.9 285.5 223.2 281.5C221.5 271.4 223 261.7 226.8 252.3C232.6 237.7 242.8 226.4 254.1 216C254.3 215.8 254.6 215.7 255.2 215.4C254.6 219.2 254 222.8 253.6 226.4C252.2 238 254.4 249 258.5 259.8C260.8 265.9 264.6 270.8 268.9 275.5C275.4 282.6 281.3 290.1 283.7 299.6C285.5 306.7 285.1 313.9 283 320.9C289.8 320.2 296.5 312.5 303 298.3C304.4 302.5 304.8 306.7 305.1 310.8C306.5 332.5 297.6 349.3 280.3 362C275.3 365.9 269.5 368.7 263.7 371.5Z" fill="#F47624"/>
<path d="M319.9 343.1C319.7 343.3 319.4 343.5 319.2 343.7C319.4 343.5 319.6 343.3 319.9 343.1Z" fill="#183449"/>
<path d="M219.2 457.5C219.3 457.5 219.4 457.6 219.4 457.6C219.3 457.6 219.2 457.5 219.2 457.5Z" fill="#183449"/>
<path d="M386.6 152.9C386 152.1 386 151.3 386.6 150.5C386.6 151.3 386.6 152.1 386.6 152.9Z" fill="#183449"/>
<path d="M386.6 120C386.5 119.9 386.5 119.7 386.4 119.6C386.4 119.6 386.5 119.5 386.6 119.4C386.6 119.6 386.6 119.8 386.6 120Z" fill="#183449"/>
<path d="M386.6 121.8C386.5 121.7 386.5 121.5 386.4 121.4C386.4 121.4 386.5 121.3 386.6 121.2C386.6 121.4 386.6 121.6 386.6 121.8Z" fill="#183449"/>
</g>
<defs>
<clipPath id="clip0_122_87">
<rect width="501.5" height="505.7" fill="white"/>
</clipPath>
</defs>
</svg>
